<?xml version="1.0" encoding="iso-8859-1"?>
<!-- Generator: Adobe Illustrator 19.0.0, SVG Export Plug-In . SVG Version: 6.00 Build 0)  -->
<svg xmlns="http://www.w3.org/2000/svg" xmlns:xlink="http://www.w3.org/1999/xlink" version="1.1" id="Layer_1" x="0px" y="0px" viewBox="0 0 512.659 512.659" style="enable-background:new 0 0 512.659 512.659;" xml:space="preserve" width="512" height="512">
<g>
	<path d="M449.111,288.665c-4.203-35.138-14.459-69.45-30.178-100.531c-1.247-2.465-2.334-4.986-3.287-7.543h1.445   c35.627,0,66.557-25.356,73.544-60.291L512.38,0.59h-43.102c-53.204,0-98.536,28.485-123.55,70.359l-25.341-50.681l-31.447,31.447   L256.279,0l-32.662,51.715l-31.447-31.447L166.833,70.94C141.787,28.966,96.486,0.59,43.41,0.59H0.504l20.419,119.709   c6.987,34.935,38.338,60.291,74.544,60.291h1.544c-0.92,2.478-1.963,4.921-3.159,7.312c-15.61,31.218-25.879,65.663-30.235,100.904   c-13.833-11.423-25.993-24.736-35.859-39.536l-27.48-41.222v49.542c0,49.746,22.765,96.813,61.863,128.246   c2.529,21.859,10.209,42.905,22.444,61.255l0.763,1.145c27.961,41.941,75.762,66.519,126.457,64.282   c0.101-0.004,89.084-0.064,89.447-0.049c50.235,2.089,97.938-22.195,125.828-64.04c12.466-18.703,20.376-40.151,23.109-62.415   c39.22-31.416,62.089-78.555,62.089-128.424v-49.542l-27.48,41.222C474.972,264.009,462.873,277.273,449.111,288.665z    M120.685,201.318c20.11-40.216,12.507-90.029-19.669-122.203L86.885,64.984L65.672,86.197l14.131,14.131   c13.487,13.487,21,31.671,21.852,50.262h-6.188c-21.534,0-40.881-15.454-45.087-35.981L36.053,30.59h7.357   c49.848,0,92.49,31.301,108.638,79.744l11.452,34.354l36.888-73.776l28.553,28.553l27.338-43.285l27.338,43.285l28.553-28.553   l36.888,73.776l11.452-34.354c16.147-48.442,58.842-79.744,108.77-79.744h7.162l-15.248,83.945   c-4.239,20.9-22.767,36.055-44.103,36.055h-6.127c0.831-18.61,8.343-36.814,21.866-50.336l14.057-14.057l-21.213-21.213   l-14.057,14.057c-15.736,15.736-25.918,35.86-29.441,58.195c-3.517,22.283-0.063,44.565,9.987,64.438   c16.508,32.642,26.321,69.279,28.595,106.466c-9.404,5.292-19.273,9.805-29.478,13.458V302.59h-30v75   c0,9.733-3.14,18.895-8.557,26.384c-1.781-22.558-20.619-41.384-44.866-41.384H204.701c-24.26,0-43.086,18.839-44.866,41.384   c-5.417-7.489-8.557-16.651-8.557-26.384v-75h-30v19.007c-10.174-3.643-20.015-8.141-29.395-13.413   C94.402,270.89,104.286,234.117,120.685,201.318z M40.627,308.776c22.556,19.519,49.897,35.116,80.651,44.421v24.393   c0,2.508,0.14,4.99,0.385,7.446C84.839,372.174,55.39,343.953,40.627,308.776z M110.311,431.597l-0.763-1.145   c-4.714-7.071-8.566-14.653-11.504-22.568c11.49,5.194,23.574,9.093,36.03,11.559c8.236,12.241,20.022,22.021,34.135,27.711   c1.91,7.631,7.446,29.813,7.945,31.744C149.575,471.908,126.191,455.417,110.311,431.597z M322.407,411.228l-15,60   c-1.416,5.663-5.925,10.201-11.458,11.362l-79.126,0.046c-5.631-1.096-10.239-5.672-11.674-11.409l-15-60   c-2.365-9.461,4.783-18.637,14.552-18.637h103.154C317.609,392.59,324.776,401.751,322.407,411.228z M402.117,431.791   c-15.52,23.284-39.165,39.813-65.661,46.915c0.017-0.067,0.038-0.133,0.055-0.201l7.837-31.35   c14.112-5.69,25.899-15.47,34.135-27.711c12.34-2.443,24.314-6.292,35.708-11.413C411.113,416.368,407.073,424.355,402.117,431.791   z M390.894,385.037c0.245-2.456,0.385-4.938,0.385-7.446v-24.393c30.74-9.301,58.084-24.892,80.651-44.421   C457.167,343.953,427.719,372.174,390.894,385.037z"/>
	<rect x="211.279" y="422.59" width="30" height="30"/>
	<rect x="271.279" y="422.59" width="30" height="30"/>
	<rect x="331.279" y="242.59" width="30" height="30"/>
	<rect x="151.279" y="242.59" width="30" height="30"/>
	<path d="M211.279,317.59c0-0.519,1.613-3.962,9.282-7.797c9.155-4.578,22.174-7.203,35.718-7.203s26.563,2.625,35.718,7.203   c7.669,3.834,9.282,7.278,9.282,7.797h30c0-13.991-9.186-26.29-25.865-34.629c-13.375-6.688-30.825-10.371-49.135-10.371   s-35.76,3.683-49.135,10.371c-16.68,8.34-25.865,20.638-25.865,34.629H211.279z"/>
</g>















</svg>
