<?xml version="1.0" encoding="iso-8859-1"?>
<!-- Generator: Adobe Illustrator 19.0.0, SVG Export Plug-In . SVG Version: 6.00 Build 0)  -->
<svg xmlns="http://www.w3.org/2000/svg" xmlns:xlink="http://www.w3.org/1999/xlink" version="1.1" id="Layer_1" x="0px" y="0px" viewBox="0 0 512 512" style="enable-background:new 0 0 512 512;" xml:space="preserve" width="512" height="512">
<g>
	<path d="M460.901,326.899C440.501,344.9,416.8,358.4,391,366.499V407c0,8.399-1.5,16.5-4.2,24.3   c43.5-12.301,81.101-43.801,99.101-87.301l24.3-59.099L460.901,326.899z"/>
	<path d="M51.099,326.899L2.8,284.599l24.3,59.399c17.999,43.5,54.6,75,98.101,87.301c-2.701-7.8-4.2-15.901-4.2-24.3v-40.201   C95.501,358.4,71.499,344.9,51.099,326.899z"/>
	<path d="M219.101,512H293.2c6.601-0.3,12.301-4.801,13.801-11.4l15-60c1.199-4.501,0.3-9.3-2.701-12.9c-2.699-3.6-7.2-5.7-11.7-5.7   H204.401c-4.501,0-9.001,2.1-11.7,5.7c-3.001,3.6-3.9,8.399-2.701,12.9l15,60C206.499,507.199,212.199,511.7,219.101,512z M271,452   h30v30h-30V452z M211,452h30v30h-30V452z"/>
	<path d="M345.399,70.499l-25.199-50.7L288.701,51L256,0l-32.701,51l-31.5-31.201l-25.199,50.7C140.2,27.299,92.1,0,40.201,0H0   l24,119.7c12.301,61.8,69.101,59.099,72.1,60.3c-0.899,2.1-1.5,4.2-2.399,6.299C77.5,219,67,259.1,62.5,296.899   c4.807,3.693,22.956,24.115,58.5,38.101V332h30v75c0,9.899,3.3,18.9,8.699,26.4c0.901-8.701,3.6-17.1,9.3-24.001   C177.4,398.299,190.6,392,204.401,392h103.198c13.801,0,27.001,6.299,35.402,17.399c5.7,6.901,8.399,15.3,9.3,24.001   c5.4-7.5,8.699-16.501,8.699-26.4v-75h30v2.999c35.345-13.907,54.053-34.742,58.801-38.399   c-4.501-37.8-14.702-77.901-31.201-110.001c-0.899-2.1-1.8-4.499-2.699-6.599c2.999-1.201,59.799,1.5,72.1-60.3L512,0h-40.201   C419.9,0,371.8,27.299,345.399,70.499z M151,302v-30h30v30H151z M301,347c0-0.3,0-0.601-0.3-1.201C298.299,341.6,282.7,332,256,332   c-24.901,0-40.201,8.399-44.099,12.9c0,0,0,0.3-0.3,0.3c-0.3,0.899-0.601,1.199-0.601,1.8h-30c0-25.501,32.1-45,75-45   s75,19.499,75,45H301z M361,302h-30v-30h30V302z"/>
	<path d="M344.2,476.3l-8.101,31.5c0,0.601-0.3,0.901-0.3,1.199c36.601-7.5,69.6-29.399,90.901-60.899   c-19.799,9.901-42.001,16.199-65.099,17.999C356.201,470.3,350.501,473.599,344.2,476.3z"/>
	<path d="M167.8,476.3c-6.301-2.701-12.001-6-17.401-10.201c-23.099-1.8-45.3-8.099-65.099-18.3   c21,31.199,53.699,53.401,90.901,61.199c0-0.298-0.3-0.599-0.3-1.199L167.8,476.3z"/>
</g>















</svg>
